Coordinates
version=1
nRows=4
nColumns=63
inDegrees=yes

Units are S.I. units (second, meters, Newtons, ...)
If the header above contains a line with 'inDegrees', this indicates whether rotational values are in degrees (yes) or radians (no).

endheader
time	pelvis_tilt	pelvis_list	pelvis_rotation	pelvis_tx	pelvis_ty	pelvis_tz	hip_flexion_r	hip_adduction_r	hip_rotation_r	knee_angle_r	knee_angle_r_beta	ankle_angle_r	subtalar_angle_r	mtp_angle_r	hip_flexion_l	hip_adduction_l	hip_rotation_l	knee_angle_l	knee_angle_l_beta	ankle_angle_l	subtalar_angle_l	mtp_angle_l	L5_S1_Flex_Ext	L5_S1_Lat_Bending	L5_S1_axial_rotation	L4_L5_Flex_Ext	L4_L5_Lat_Bending	L4_L5_axial_rotation	L3_L4_Flex_Ext	L3_L4_Lat_Bending	L3_L4_axial_rotation	L2_L3_Flex_Ext	L2_L3_Lat_Bending	L2_L3_axial_rotation	L1_L2_Flex_Ext	L1_L2_Lat_Bending	L1_L2_axial_rotation	L1_T12_Flex_Ext	L1_T12_Lat_Bending	L1_T12_axial_rotation	Abs_r3	Abs_r2	Abs_r1	Abs_t1	Abs_t2	neck_flexion	neck_bending	neck_rotation	arm_flex_r	arm_add_r	arm_rot_r	elbow_flex_r	pro_sup_r	wrist_flex_r	wrist_dev_r	arm_flex_l	arm_add_l	arm_rot_l	elbow_flex_l	pro_sup_l	wrist_flex_l	wrist_dev_l
      0.65789474	      2.34152814	     -2.46268324	    110.89211817	      0.35404064	      0.46771877	      0.96165005	      4.44381568	     -2.54480119	    -12.50898107	      8.47625228	      0.14793851	     21.79711004	     16.16564967	      0.00000000	      7.47853673	      0.96041121	    -10.97428649	     11.28509591	      0.19696208	     21.75077454	      9.06440574	      0.00000000	      0.10608722	     -0.16713672	      0.91923735	      0.19701457	     -0.22229183	      0.97668968	      0.17429069	     -0.40637621	      0.97668968	      0.12124708	     -0.40637621	      0.80433268	      0.09851259	     -0.34082519	      0.74688035	      0.06061823	     -0.25889477	      0.68942801	      0.75777037	     -1.89068396	      5.11252237	      0.00000000	      0.00000000	     20.70071277	      0.24159765	     -4.59166597	     14.52933592	     -8.37513681	     96.03684707	     11.41093956	     14.65098714	      3.22408184	     -1.12986971	     20.90369403	     -9.97525409	     88.69832574	     21.13040828	     56.83887514	     -6.52328812	    -13.62422991
      0.68421053	      2.36273455	     -2.47695091	    111.33716841	      0.35437290	      0.46809674	      0.96159625	      4.42679329	     -2.50676972	    -12.69238792	      8.41707853	      0.14690573	     21.55443162	     15.80385220	      0.00000000	      7.40457793	      0.90394044	    -11.07597081	     11.15710341	      0.19472819	     21.19473435	      9.32575509	      0.00000000	      0.11641731	     -0.17883736	      0.78232872	      0.21619859	     -0.23785369	      0.83122427	      0.19126201	     -0.43482515	      0.83122427	      0.13305335	     -0.43482515	      0.68453763	      0.10810512	     -0.36468514	      0.63564209	      0.06652085	     -0.27701907	      0.58674654	      0.83155723	     -2.02304396	      4.35107766	      0.00000000	      0.00000000	     20.25628322	      0.49906748	     -4.57246418	     14.52184157	     -8.54474606	     96.09800359	     10.31464763	     14.53384827	      4.63715527	     -0.44175369	     19.69596142	    -10.79623708	     89.85544418	     18.97189504	     57.33872963	     -6.14058507	    -12.05374548
      0.71052632	      2.40247901	     -2.35420181	    111.80600770	      0.35506631	      0.46814650	      0.96150526	      4.24606468	     -2.35020766	    -12.90609954	      8.34012310	      0.14556261	     21.34347154	     15.47708607	      0.00000000	      7.34531022	      0.68494011	    -11.41285287	     11.33278720	      0.19779445	     20.96254928	      9.86074223	      0.00000000	      0.10313455	     -0.18534052	      0.68086033	      0.19153117	     -0.24650290	      0.72341410	      0.16943975	     -0.45063695	      0.72341410	      0.11787248	     -0.45063695	      0.59575278	      0.09577074	     -0.37794640	      0.55319901	      0.05893108	     -0.28709247	      0.51064524	      0.73667978	     -2.09660907	      3.78674087	      0.00000000	      0.00000000	     20.18544575	      0.60283756	     -4.42521770	     14.71291097	     -7.65156955	    107.79344461	      6.09921832	      4.49559688	     10.61653564	     -0.52647481	     19.23527374	    -11.74688621	     92.51766815	     17.74714914	     59.32499710	     -6.39944357	    -10.33445330
      0.73684211	      2.47181386	     -2.24379608	    112.17095367	      0.35539711	      0.46837897	      0.96160483	      4.14210412	     -2.22746403	    -13.31861874	      8.37747418	      0.14621451	     20.98092405	     15.45473262	      0.00000000	      7.28929997	      0.53697397	    -11.22119677	     11.42678138	      0.19943496	     20.60333477	      9.50840495	      0.00000000	      0.10190461	     -0.18100904	      0.54353865	      0.18924705	     -0.24074203	      0.57750982	      0.16741909	     -0.44010539	      0.57750982	      0.11646678	     -0.44010539	      0.47559632	      0.09462862	     -0.36911364	      0.44162516	      0.05822829	     -0.28038301	      0.40765399	      0.72789445	     -2.04761051	      3.02299893	      0.00000000	      0.00000000	     19.82018126	      0.89072750	     -3.80627185	     14.62186469	     -7.61826380	    107.99716729	      4.87940502	      3.80454144	     11.06422803	     -1.12679600	     18.67438665	    -12.27291622	     95.61698130	     16.26652917	     62.67522926	     -9.02363954	     -9.58005056
